<?xml version="1.0" standalone="no"?>
<!DOCTYPE svg PUBLIC "-//W3C//DTD SVG 20010904//EN"
 "http://www.w3.org/TR/2001/REC-SVG-20010904/DTD/svg10.dtd">
<svg version="1.0" xmlns="http://www.w3.org/2000/svg"
 width="300.000000pt" height="225.000000pt" viewBox="0 0 300.000000 225.000000"
 preserveAspectRatio="xMidYMid meet">
<metadata>
Created by potrace 1.10, written by Peter Selinger 2001-2011
</metadata>
<g transform="translate(0.000000,225.000000) scale(0.100000,-0.100000)"
fill="#000000" stroke="none">
<path d="M1547 2140 c-36 -11 -56 -27 -78 -64 l-17 -28 -16 31 c-29 55 -112
78 -183 50 -15 -6 -64 -15 -107 -20 -98 -12 -148 -33 -209 -92 -27 -25 -60
-48 -74 -52 -54 -13 -110 -63 -142 -125 -16 -33 -51 -84 -76 -112 -63 -70 -95
-127 -122 -217 -12 -42 -33 -107 -47 -146 -42 -117 -32 -201 43 -360 54 -114
93 -164 160 -203 39 -23 57 -27 122 -27 l77 0 18 -35 c25 -46 73 -68 164 -75
41 -4 106 -13 143 -22 42 -10 91 -14 127 -10 l57 5 7 -77 c13 -163 25 -252 38
-278 16 -34 63 -45 72 -16 10 37 28 285 23 329 -4 42 -3 44 17 37 11 -4 39 -7
61 -6 22 1 94 4 160 7 124 4 191 20 230 55 12 11 51 22 98 29 140 21 251 91
336 213 87 124 121 247 102 376 -8 60 -23 103 -65 188 -54 109 -133 231 -143
221 -3 -3 8 -22 24 -43 17 -21 43 -60 58 -88 l29 -50 -28 25 c-47 43 -104 136
-94 154 5 8 5 23 0 33 -78 165 -116 209 -205 235 -23 7 -54 25 -69 40 -14 16
-52 40 -83 54 -49 23 -65 25 -118 20 -54 -6 -69 -3 -117 20 -61 28 -130 38
-173 24z m-168 -28 c56 -28 73 -72 68 -169 -3 -44 -8 -86 -11 -92 -12 -19
-103 35 -131 78 -26 38 -61 61 -93 61 -10 -1 -3 -7 14 -14 17 -8 44 -33 60
-57 18 -27 46 -53 74 -67 70 -35 82 -51 87 -123 5 -82 -5 -100 -42 -73 -15 10
-38 26 -52 35 -20 13 -21 18 -9 22 18 7 21 39 6 67 -5 10 -26 24 -45 30 -25 8
-41 23 -55 50 -11 21 -25 42 -31 46 -21 13 -88 7 -114 -10 -14 -9 -30 -14 -35
-11 -25 16 2 106 35 119 9 3 29 6 43 6 15 0 54 12 87 25 65 27 110 32 121 13
5 -7 2 -8 -7 -3 -8 5 -11 4 -6 -1 5 -5 14 -9 20 -9 19 0 20 -64 2 -91 -19 -30
-2 -32 19 -2 32 45 13 118 -34 138 -24 10 -38 7 -99 -20 -48 -21 -84 -30 -111
-28 -42 2 -83 -25 -95 -64 -5 -14 -10 -16 -25 -8 -10 6 -38 10 -61 10 l-43 0
35 36 c57 59 103 78 186 76 40 -1 83 3 95 8 21 8 21 9 3 10 -25 3 50 28 85 29
14 1 40 -7 59 -17z m333 -7 c44 -20 68 -24 129 -23 65 2 80 -1 127 -26 68 -38
84 -56 48 -56 -14 0 -43 -7 -64 -16 -37 -14 -41 -14 -73 5 -19 11 -61 27 -95
35 -33 9 -84 25 -112 37 -88 37 -158 5 -169 -78 -4 -32 0 -45 21 -70 14 -17
26 -38 26 -47 0 -18 -30 -36 -59 -36 -27 0 -34 30 -30 134 4 91 21 128 70 153
40 21 121 16 181 -12z m-30 -64 c29 -11 86 -29 126 -41 40 -11 76 -28 79 -36
8 -22 1 -25 -38 -15 -19 5 -69 12 -112 15 -73 5 -76 5 -66 -12 8 -12 9 -36 5
-67 -8 -51 -32 -82 -97 -120 -28 -17 -34 -26 -32 -50 5 -55 5 -55 32 -36 14
10 35 23 46 30 20 13 20 13 0 6 -54 -19 -57 -19 -53 6 2 17 16 30 50 46 42 20
48 27 63 78 23 80 43 97 113 93 63 -3 60 3 46 -88 -4 -31 -1 -57 9 -82 l15
-36 -54 -4 c-52 -4 -56 -7 -144 -94 -85 -83 -128 -139 -117 -151 3 -2 11 6 17
19 13 25 80 98 90 98 4 0 5 -13 2 -28 -2 -16 3 -45 12 -65 15 -37 15 -37 -15
-52 -47 -25 -34 -24 39 2 81 29 92 39 95 86 6 87 57 69 57 -20 0 -49 -4 -59
-33 -88 -25 -25 -49 -36 -106 -49 -86 -20 -122 -42 -145 -90 -23 -49 -21 -152
3 -192 25 -40 81 -83 112 -86 54 -4 197 44 214 72 9 14 7 13 -49 -15 -54 -27
-149 -34 -189 -14 -28 14 -76 59 -88 81 -8 16 -6 15 24 -2 38 -23 121 -37 130
-23 4 6 -10 10 -30 11 -71 3 -117 32 -128 81 -6 32 8 87 23 84 6 -2 9 4 6 12
-9 21 51 53 114 61 44 5 62 3 102 -16 48 -23 104 -24 166 -5 18 6 24 1 33 -27
6 -19 25 -48 41 -63 17 -16 30 -32 30 -36 0 -4 -31 -10 -69 -14 -73 -7 -86 -3
-160 50 -22 17 -46 25 -70 24 l-36 -2 42 -6 c27 -5 55 -19 82 -44 l40 -36 -44
-7 c-24 -3 -64 -5 -88 -3 -25 2 -43 1 -41 -3 9 -14 66 -19 116 -9 96 20 227
29 267 19 60 -15 106 9 122 64 16 55 26 68 54 68 32 0 38 -25 21 -84 -27 -91
-75 -119 -204 -121 -84 -1 -95 -3 -117 -26 -13 -13 -27 -37 -30 -54 l-7 -30
21 32 c35 55 63 67 139 60 37 -3 95 -16 130 -27 61 -21 63 -22 90 -4 15 10 32
19 37 19 6 0 10 7 10 15 0 8 16 23 35 32 24 12 29 18 16 18 -11 0 -43 -16 -72
-36 -47 -32 -57 -35 -94 -29 l-41 7 40 34 c46 40 75 107 69 158 -4 33 -2 36
22 36 54 0 111 100 89 157 -19 51 -1 32 24 -25 82 -183 54 -383 -67 -474 -106
-79 -218 -98 -313 -53 -29 13 -53 30 -53 38 0 43 79 50 155 12 30 -15 66 -24
90 -23 l40 1 -45 7 c-25 3 -67 19 -95 34 -62 34 -112 31 -214 -14 -67 -29 -75
-30 -168 -25 -143 9 -213 29 -268 77 -68 60 -77 85 -76 202 1 93 3 104 28 140
16 22 48 50 73 62 52 27 39 32 -20 8 -28 -11 -45 -13 -51 -7 -6 6 -13 76 -16
156 -7 167 0 197 52 221 47 23 53 49 21 95 -34 49 -33 85 3 122 35 34 60 36
133 10z m429 -76 c51 -18 110 -62 107 -78 -1 -7 8 -30 20 -52 11 -22 21 -35
22 -30 0 6 -10 26 -21 45 -14 23 -16 30 -6 21 20 -16 57 -112 57 -147 l0 -25
-44 30 c-24 17 -58 53 -76 81 -55 86 -154 126 -199 81 -11 -11 -23 -37 -27
-58 -8 -46 -29 -83 -48 -83 -21 0 -39 56 -33 101 14 109 122 158 248 114z
m-1250 -30 c-33 -28 -76 -93 -68 -101 3 -3 12 7 21 24 22 43 81 90 122 98 50
9 81 -8 100 -56 9 -22 21 -40 28 -40 6 0 30 10 53 22 54 29 89 18 120 -37 15
-27 35 -45 63 -57 39 -17 54 -48 31 -62 -20 -13 -146 25 -176 53 -54 49 -72
59 -42 23 19 -24 27 -45 27 -73 0 -39 0 -39 20 -19 24 24 21 24 93 5 67 -17
189 -96 199 -128 15 -53 0 -177 -22 -177 -4 0 -11 13 -15 29 -3 16 -15 37 -25
46 -16 14 -17 20 -7 36 27 43 -66 140 -133 138 -20 0 -18 -3 15 -15 65 -24
124 -92 100 -116 -3 -3 -22 -2 -43 1 -49 9 -100 -2 -117 -25 -18 -25 -11 -30
17 -10 12 9 41 16 64 16 54 0 90 -29 127 -102 23 -46 27 -66 27 -139 0 -84
-23 -181 -53 -220 -34 -45 -106 -51 -182 -15 -103 48 -117 49 -200 27 -127
-35 -166 -24 -130 37 27 45 68 64 147 67 38 2 74 7 78 11 10 10 -104 9 -155 0
-20 -4 -48 -23 -74 -51 -48 -51 -73 -56 -97 -19 -14 21 -15 33 -6 72 11 51 0
91 -28 100 -12 4 -11 1 3 -15 19 -22 22 -46 7 -74 -8 -15 -22 -19 -58 -19 -26
0 -66 -9 -89 -20 -39 -17 -44 -18 -59 -3 -13 13 -15 27 -9 67 7 60 -12 53 -22
-8 -5 -29 -1 -44 16 -67 15 -21 19 -34 13 -42 -6 -7 -12 -21 -14 -32 -4 -16
-10 -9 -29 30 -20 42 -23 65 -23 145 0 79 5 106 27 160 14 36 31 85 37 110 7
25 25 70 41 100 31 56 109 151 109 132 0 -6 -4 -13 -9 -17 -5 -3 -12 -20 -16
-38 -4 -17 -24 -61 -45 -97 -21 -36 -43 -87 -50 -115 -6 -27 -20 -64 -31 -81
-29 -47 -24 -62 29 -87 42 -20 47 -26 47 -55 l0 -32 41 45 c40 43 44 45 98 45
51 0 57 -2 71 -30 18 -35 44 -50 82 -49 26 1 26 2 -7 9 -33 8 -60 32 -60 54 0
13 18 49 44 89 25 38 16 34 -33 -14 -40 -40 -44 -41 -94 -36 -44 4 -56 10 -84
42 -36 42 -38 40 -22 -14 8 -26 7 -44 -1 -66 l-12 -30 -16 23 c-8 13 -30 29
-49 37 -18 8 -33 19 -33 25 0 6 11 33 25 60 14 27 25 55 25 63 0 31 53 117 84
137 54 32 93 27 138 -20 43 -46 48 -44 17 7 -34 55 -84 73 -141 49 -14 -7 -15
-3 -8 26 13 56 21 67 74 105 63 45 126 104 126 117 0 6 -19 -8 -42 -30 -39
-36 -93 -79 -125 -97 -17 -11 31 85 62 122 25 29 87 69 108 71 5 0 -5 -11 -22
-25z m1207 -54 c20 -11 50 -33 65 -49 l29 -30 -35 -11 c-41 -14 -63 -36 -72
-74 -11 -43 16 -74 82 -93 67 -20 99 -51 108 -107 4 -23 11 -49 16 -58 11 -22
57 -33 75 -18 8 6 14 8 14 4 0 -4 7 -2 15 5 8 7 15 17 15 23 0 6 -7 2 -15 -9
-14 -18 -15 -17 -4 8 7 15 15 26 18 23 4 -2 5 13 3 33 l-3 37 24 -27 c33 -36
42 -89 22 -131 -20 -42 -43 -56 -107 -63 -43 -4 -58 -11 -80 -36 -25 -29 -27
-29 -37 -10 -6 12 -11 49 -11 84 0 81 -21 115 -94 157 -31 17 -69 49 -85 72
l-30 40 25 36 c13 20 27 47 30 60 7 27 0 109 -11 136 -9 22 -3 21 43 -2z m-59
-54 c37 -98 -30 -169 -191 -202 -45 -9 -61 -33 -54 -82 5 -40 3 -45 -20 -55
-23 -11 -29 -10 -45 11 -35 43 -18 131 34 180 18 16 50 28 99 37 59 11 78 20
101 44 15 17 27 41 27 54 0 64 27 71 49 13z m182 -73 c15 -14 49 -40 75 -57
98 -65 128 -197 53 -237 -26 -15 -49 3 -50 39 -2 77 -51 132 -128 145 -68 11
-91 67 -46 111 31 32 62 32 96 -1z m-192 -167 c22 -27 41 -53 41 -58 0 -23
-66 -142 -88 -160 -31 -24 -95 -24 -140 0 l-33 17 25 12 c55 25 86 135 56 192
-9 17 -6 20 17 25 16 4 37 10 48 15 27 12 26 12 74 -43z m110 -82 c37 -19 61
-71 61 -133 0 -62 16 -109 41 -117 15 -5 17 -10 9 -25 -18 -34 -120 -39 -120
-6 0 7 -14 25 -31 42 -58 54 -73 119 -43 190 28 68 37 73 83 49z m-1384 -368
c17 -13 16 -15 -13 -25 -55 -19 -68 -88 -21 -113 25 -13 36 -5 20 15 -16 19
-10 66 10 79 12 7 22 3 40 -15 14 -14 47 -33 73 -43 43 -17 54 -17 105 -6 164
38 141 38 223 -2 100 -49 171 -52 221 -7 18 16 40 48 48 72 l14 43 3 -52 c7
-118 -48 -172 -201 -199 -50 -9 -109 -29 -162 -55 -69 -33 -92 -40 -132 -37
-42 3 -48 6 -45 23 7 41 4 67 -12 84 -16 17 -15 19 24 35 49 19 81 20 140 2
60 -18 198 -29 235 -18 25 7 14 10 -60 16 -49 4 -126 16 -171 27 -76 19 -82
19 -125 4 -113 -43 -118 -42 -221 3 -5 2 -8 -1 -8 -7 0 -6 18 -18 40 -27 22
-9 40 -20 40 -25 0 -17 -69 -21 -122 -5 -102 29 -152 115 -108 184 33 54 122
80 165 49z m778 -97 c45 -60 129 -93 277 -111 94 -10 110 -10 156 6 50 17 54
17 96 0 24 -10 66 -26 93 -36 48 -18 49 -18 16 -19 -24 0 -44 -10 -72 -35 -32
-28 -47 -35 -82 -35 -34 -1 -39 -3 -24 -11 27 -16 80 -3 112 27 46 43 70 47
147 25 38 -11 77 -17 86 -14 14 6 15 4 4 -9 -19 -24 -130 -75 -190 -87 -113
-23 -164 -10 -211 56 -47 65 -77 76 -217 83 -113 5 -123 7 -157 33 -52 39 -67
66 -73 128 -6 58 -6 58 39 -1z m918 -99 c-28 -39 -84 -80 -118 -87 -15 -2 -48
2 -73 10 -31 10 -38 14 -22 15 42 2 126 30 177 61 28 16 51 29 53 29 2 1 -6
-12 -17 -28z m-926 -20 c24 -22 41 -42 38 -44 -13 -13 75 -29 128 -23 54 6 59
5 75 -19 19 -30 14 -74 -16 -123 -14 -22 -26 -32 -36 -28 -8 3 -13 2 -10 -3 9
-15 -19 -20 -59 -11 -45 10 -82 44 -94 84 -5 17 -10 23 -10 13 -1 -22 22 -69
43 -87 9 -7 31 -16 49 -21 29 -8 27 -8 -12 -5 -24 3 -56 13 -70 24 -33 24 -53
84 -45 129 l6 34 27 -24 c36 -34 64 -47 101 -47 17 0 41 -5 53 -11 21 -10 21
-10 3 5 -11 9 -31 16 -45 16 -48 0 -126 68 -155 133 -3 8 -12 3 -23 -13 -29
-40 -65 -70 -113 -95 -47 -24 -83 -58 -93 -87 -10 -29 7 -20 25 12 9 16 34 38
55 47 21 10 57 30 81 46 49 33 50 29 28 -68 -9 -37 -23 -66 -36 -77 -35 -28
-47 -21 -18 10 28 29 48 72 47 100 0 9 -7 -4 -15 -30 -18 -58 -53 -88 -106
-88 -72 0 -136 51 -145 117 -7 51 8 62 98 74 82 10 151 40 177 75 9 13 19 24
21 24 2 0 23 -18 46 -39z m-790 -55 c17 -3 57 -1 90 3 52 7 54 9 20 10 -51 2
-28 21 25 21 41 0 60 -14 60 -46 0 -40 -22 -51 -93 -48 -73 3 -147 30 -189 71
-41 39 -34 47 15 19 23 -13 56 -27 72 -30z m1136 -29 c18 -12 45 -40 60 -61
14 -21 41 -47 59 -56 l34 -17 -30 -16 c-48 -24 -139 -39 -199 -32 -51 7 -55 9
-41 24 25 27 46 88 46 130 0 35 8 47 31 50 3 1 21 -9 40 -22z m-357 -151 c16
-26 18 -46 15 -212 -2 -100 -8 -186 -12 -190 -11 -11 -35 27 -41 66 -12 78
-14 368 -3 435 l12 70 5 -71 c3 -44 12 -80 24 -98z m-364 90 c0 -34 -21 -63
-39 -52 -5 4 -12 2 -16 -4 -4 -6 5 -10 19 -10 17 0 30 8 39 26 l13 26 25 -36
c24 -36 71 -65 106 -67 10 0 13 -3 6 -5 -6 -3 -42 4 -78 15 -39 12 -95 21
-132 21 -69 0 -127 20 -143 50 -8 15 -3 18 40 22 27 3 71 16 97 30 26 14 51
23 56 21 4 -2 7 -19 7 -37z"/>
<path d="M936 1877 c-11 -36 4 -52 60 -66 59 -15 71 -43 49 -117 -19 -65 -54
-96 -103 -92 -52 4 -62 29 -34 78 18 32 20 44 12 60 -15 28 -78 27 -108 0 -30
-28 -28 -33 8 -15 32 17 66 20 74 6 3 -4 -2 -27 -11 -49 -13 -35 -14 -46 -3
-72 12 -30 13 -30 87 -30 65 0 77 -3 98 -25 14 -13 25 -29 25 -35 0 -24 -30
-79 -48 -89 -17 -9 -20 -7 -25 19 -4 16 -18 37 -33 46 -24 16 -29 16 -94 0
-96 -25 -149 -9 -163 49 -3 13 -5 9 -6 -12 -2 -61 80 -91 176 -64 69 20 101
-20 69 -85 -19 -41 -21 -105 -4 -122 7 -7 26 -11 43 -11 21 1 24 3 10 6 -33 8
-45 24 -45 59 0 46 29 64 105 64 75 0 133 -15 164 -43 41 -38 102 -127 95
-139 -4 -7 -3 -8 4 -4 7 4 12 1 12 -7 0 -8 3 -27 6 -43 3 -18 0 -37 -9 -49
-15 -19 -16 -19 -54 8 -22 15 -77 68 -122 117 -45 50 -89 90 -97 90 -25 0 174
-206 223 -232 l44 -23 21 25 c16 20 19 35 16 72 -4 40 -16 62 -64 126 -75 98
-117 122 -224 123 -73 1 -74 1 -43 15 39 17 67 66 59 104 -5 26 -2 28 35 34
49 8 42 26 -10 26 -24 0 -45 7 -59 20 -26 25 -26 26 -7 80 31 88 9 139 -69
159 -38 9 -45 15 -48 38 l-4 28 -8 -28z"/>
<path d="M1450 528 c0 -62 5 -120 10 -128 7 -10 10 25 10 107 0 71 -4 124 -10
128 -6 4 -10 -34 -10 -107z"/>
<path d="M1483 575 c0 -38 2 -53 4 -32 2 20 2 52 0 70 -2 17 -4 1 -4 -38z"/>
<path d="M1483 435 c0 -33 2 -45 4 -27 2 18 2 45 0 60 -2 15 -4 0 -4 -33z"/>
<path d="M542 1854 c-43 -30 -21 -94 32 -94 57 0 87 58 48 93 -23 21 -51 22
-80 1z m68 -33 c11 -21 -9 -51 -34 -51 -21 0 -38 27 -31 50 8 26 51 27 65 1z"/>
<path d="M2511 1818 c-14 -7 -34 -28 -44 -46 -54 -93 53 -201 157 -158 67 28
84 122 32 182 -26 32 -105 43 -145 22z m131 -28 c25 -25 29 -36 23 -58 -4 -15
-8 -39 -9 -53 -4 -36 -14 -49 -33 -42 -9 4 -14 2 -11 -3 4 -5 -13 -9 -37 -9
-24 0 -41 4 -37 9 3 5 -2 7 -11 3 -22 -8 -57 37 -57 74 0 63 45 108 108 109
24 0 42 -9 64 -30z"/>
<path d="M2534 1800 c-53 -21 -71 -99 -33 -141 11 -13 18 -18 14 -12 -3 7 6
24 22 38 26 22 29 23 41 7 13 -16 14 -15 10 3 -2 11 5 28 17 38 19 17 19 17
-10 5 -16 -6 -44 -24 -61 -40 -34 -32 -44 -28 -44 14 0 40 18 71 36 64 8 -3
12 -1 9 4 -9 15 44 24 71 11 14 -6 31 -26 39 -44 11 -26 14 -28 15 -10 0 26
-53 73 -83 72 -12 0 -32 -4 -43 -9z"/>
<path d="M351 1764 c-17 -14 -31 -32 -31 -39 0 -7 -6 -16 -12 -18 -10 -4 -10
-6 0 -6 6 -1 12 -12 12 -26 0 -14 11 -37 25 -50 55 -56 155 -11 155 70 0 21
-4 34 -10 30 -5 -3 -7 0 -4 8 7 20 -42 57 -77 57 -15 0 -41 -12 -58 -26z m95
-12 c9 -5 22 -26 29 -45 8 -23 9 -34 2 -30 -6 4 -8 0 -4 -10 3 -10 5 -17 3
-17 -3 0 -11 -3 -20 -6 -13 -5 -15 0 -11 27 4 26 3 28 -3 9 -4 -14 -18 -27
-32 -31 -24 -7 -24 -7 5 -10 17 -1 36 -2 42 -2 7 1 11 -2 9 -6 -9 -14 -108 -3
-125 14 -9 10 -11 15 -6 12 7 -3 10 12 9 41 0 26 3 52 7 58 10 12 71 9 95 -4z"/>
<path d="M279 1413 c-1 -5 -1 -11 0 -15 0 -5 -5 -7 -11 -5 -7 1 -14 -10 -16
-25 -7 -58 79 -93 112 -46 22 31 20 51 -7 76 -22 21 -76 31 -78 15z m73 -53
c-3 -18 -11 -31 -21 -32 -49 -4 -56 -2 -53 17 6 38 12 45 37 45 18 0 24 4 19
13 -6 9 -5 9 7 0 10 -8 14 -23 11 -43z"/>
<path d="M2606 1368 c-18 -25 -21 -53 -6 -43 6 4 7 -1 3 -11 -5 -14 -3 -16 11
-11 10 4 15 3 11 -3 -13 -21 35 -9 49 12 20 29 20 34 -4 58 -26 26 -45 25 -64
-2z m54 -28 c0 -13 -7 -20 -20 -20 -13 0 -20 7 -20 20 0 13 7 20 20 20 13 0
20 -7 20 -20z"/>
<path d="M252 1074 c-28 -19 -28 -48 -1 -68 43 -30 93 20 62 63 -17 25 -31 26
-61 5z m55 -31 c6 -17 -38 -28 -48 -12 -4 7 -5 17 -2 22 7 12 46 4 50 -10z"/>
<path d="M2592 954 c-27 -19 -29 -64 -4 -87 21 -19 72 -23 72 -6 0 5 4 8 9 4
10 -6 31 25 31 45 0 18 -47 60 -67 60 -10 0 -29 -7 -41 -16z m84 -16 c4 -7 3
-8 -5 -4 -8 6 -10 1 -6 -16 8 -31 -16 -52 -46 -43 -14 5 -19 4 -15 -4 11 -17
0 -13 -15 6 -12 14 -12 15 0 9 10 -6 12 -4 7 11 -7 23 8 39 44 46 14 2 26 5
27 6 1 0 5 -4 9 -11z"/>
<path d="M367 902 c-24 -26 -21 -68 5 -86 31 -22 45 -20 73 9 30 29 31 49 5
75 -25 25 -62 26 -83 2z m71 -4 c19 -19 14 -56 -8 -68 -31 -16 -61 4 -58 39 2
25 5 27 28 21 17 -5 25 -13 24 -28 0 -12 3 -22 8 -22 10 0 10 31 0 46 -4 7
-16 14 -27 17 -20 5 -20 5 1 6 11 0 25 -4 32 -11z"/>
<path d="M2455 790 c-27 -29 -7 -70 34 -70 43 0 59 60 22 80 -27 14 -35 13
-56 -10z m46 -19 c-9 -6 -10 -11 -2 -15 6 -4 11 -11 11 -17 0 -12 -37 -12 -45
1 -11 19 3 40 27 40 17 0 19 -3 9 -9z"/>
<path d="M695 700 c-4 -6 -4 -22 -1 -35 5 -18 1 -27 -13 -34 -18 -10 -41 -78
-41 -122 0 -16 5 -20 20 -16 11 3 20 4 20 2 0 -1 -11 -42 -25 -89 -31 -105
-31 -112 -3 -119 26 -7 36 -1 21 14 -8 8 -7 23 2 53 8 22 20 61 26 86 l13 45
7 -45 c4 -25 8 -68 8 -96 1 -47 3 -52 26 -56 14 -3 28 -2 30 3 3 4 -2 9 -12
11 -15 3 -17 16 -18 93 -1 59 3 93 11 100 9 7 10 25 3 69 -5 33 -13 64 -17 70
-4 6 -7 25 -7 41 0 23 -5 31 -22 33 -11 2 -24 -2 -28 -8z m34 -103 c19 -24 25
-78 10 -88 -41 -26 -67 14 -47 73 11 31 20 35 37 15z"/>
<path d="M2243 671 c4 -21 2 -31 -9 -35 -8 -3 -20 -19 -25 -36 -6 -16 -15 -30
-21 -30 -5 0 -7 4 -3 9 3 5 1 12 -3 15 -5 3 -7 17 -4 31 3 20 0 25 -15 25 -27
0 -35 -10 -22 -27 9 -10 8 -18 -4 -31 -24 -26 -45 -114 -29 -119 8 -3 12 -25
12 -64 0 -47 -3 -59 -16 -59 -8 0 -12 -4 -9 -10 3 -5 21 -10 39 -10 33 0 34 0
39 58 13 127 20 161 33 166 11 4 15 -8 16 -52 5 -110 -1 -166 -19 -179 -15
-12 -14 -13 10 -13 31 0 33 3 43 85 7 53 8 56 15 30 3 -16 7 -49 8 -72 1 -33
5 -43 17 -43 15 0 16 10 11 79 -4 55 -2 97 8 135 16 60 8 102 -20 113 -9 3
-14 12 -11 19 9 22 -5 44 -26 44 -17 0 -20 -5 -15 -29z m42 -83 c6 -27 -6 -76
-19 -80 -13 -4 -27 52 -21 80 3 12 12 22 20 22 8 0 17 -10 20 -22z"/>
<path d="M802 643 c-18 -32 -26 -95 -13 -102 7 -5 8 -17 2 -39 -6 -20 -6 -32
0 -32 5 0 9 -17 9 -39 0 -59 12 -131 21 -131 5 0 9 37 10 83 1 93 5 92 16 -6
5 -37 12 -66 18 -65 5 2 9 5 8 8 -7 23 -11 212 -4 204 5 -5 11 -20 13 -34 2
-17 8 -24 21 -22 15 3 17 -6 17 -73 0 -85 17 -102 23 -22 l3 52 2 -52 c1 -29
6 -53 11 -53 13 0 13 167 1 175 -13 8 -13 35 0 35 6 0 10 -8 10 -17 0 -12 3
-14 11 -6 14 14 3 33 -17 33 -12 0 -12 4 -4 20 9 16 8 22 -4 26 -21 8 -39 -5
-33 -26 2 -10 -4 -25 -14 -33 -17 -15 -19 -13 -30 21 -6 20 -17 42 -24 47 -7
6 -12 21 -11 35 1 30 -28 39 -42 13z"/>
<path d="M2003 629 c-22 -8 -28 -23 -25 -61 1 -10 -3 -18 -8 -18 -13 0 -13
-53 0 -66 6 -6 6 -22 0 -44 -13 -46 -13 -106 1 -131 7 -15 7 -24 -2 -35 -9
-11 -8 -14 4 -14 21 0 26 19 15 52 -5 15 -8 37 -6 50 3 18 7 14 17 -21 7 -24
10 -54 7 -67 -5 -17 -2 -24 9 -24 12 0 15 14 15 73 0 49 5 80 15 95 12 16 13
27 5 41 -5 11 -10 35 -10 55 0 19 -5 38 -11 42 -8 5 -7 9 1 14 17 11 22 57 7
63 -7 2 -22 1 -34 -4z"/>
<path d="M1040 596 c-8 -10 -9 -20 -2 -33 8 -13 5 -22 -14 -40 -17 -15 -24
-33 -24 -58 0 -19 4 -35 10 -35 25 0 22 -120 -5 -182 -5 -14 -2 -18 13 -18 17
0 21 10 29 68 11 71 11 70 17 -43 1 -13 9 -21 26 -23 19 -3 22 -1 13 10 -22
26 -25 84 -8 151 21 85 22 127 3 141 -12 9 -14 17 -6 29 11 20 -5 47 -27 47
-7 0 -18 -7 -25 -14z m38 -114 c3 -20 -16 -68 -23 -60 -8 8 -15 70 -9 79 9 16
29 5 32 -19z"/>
<path d="M1170 595 c-7 -8 -9 -22 -6 -31 4 -9 0 -24 -7 -33 -21 -23 -38 -121
-23 -127 11 -4 7 -96 -6 -154 -1 -8 4 -15 12 -15 9 0 16 11 18 30 6 77 14 115
23 115 6 0 9 -29 8 -72 -2 -57 1 -74 12 -76 11 -2 14 21 16 120 2 105 0 118
-10 91 -17 -44 -24 -48 -37 -23 -12 23 -6 66 12 88 17 19 62 -61 54 -94 -5
-17 -3 -23 4 -19 5 3 10 33 10 65 0 48 -4 62 -20 73 -13 9 -18 20 -14 31 6 16
-11 46 -26 46 -4 0 -13 -7 -20 -15z"/>
<path d="M1747 588 c-12 -6 -15 -16 -11 -32 3 -13 0 -27 -9 -34 -10 -8 -12
-25 -7 -59 8 -64 -2 -179 -15 -173 -5 3 -9 10 -9 17 14 132 15 162 2 174 -8 7
-12 24 -10 37 4 20 1 23 -19 20 -16 -2 -24 -10 -25 -23 0 -28 -14 -56 -25 -50
-4 3 -6 19 -2 35 5 26 2 30 -16 30 -13 0 -21 -7 -22 -17 0 -10 -4 -44 -8 -75
-4 -32 -3 -58 2 -58 4 0 6 -8 3 -17 -2 -10 -7 -28 -11 -40 -4 -14 -2 -23 4
-23 6 0 11 9 11 19 0 11 5 23 10 26 6 4 10 -5 10 -19 0 -14 5 -26 10 -26 6 0
10 6 9 13 -5 40 3 117 12 117 7 0 9 -28 7 -80 -3 -80 -3 -80 22 -79 14 0 37
-3 53 -7 26 -6 27 -5 28 32 1 22 5 50 9 64 8 23 8 23 11 -10 1 -19 3 -46 4
-59 0 -14 6 -26 13 -29 9 -3 12 21 12 87 0 56 5 99 13 111 10 17 9 26 -4 49
-9 16 -15 40 -12 53 5 29 -14 41 -40 26z m-62 -128 c3 -5 0 -19 -8 -30 -12
-17 -16 -18 -26 -6 -6 7 -9 21 -5 30 7 18 29 21 39 6z m-14 -122 c2 -26 0 -50
-4 -54 -4 -4 -7 19 -7 51 0 69 7 70 11 3z"/>
<path d="M1866 588 c-3 -7 -5 -26 -5 -43 0 -16 -4 -60 -8 -97 -5 -38 -5 -68
-1 -68 12 0 10 -88 -2 -95 -20 -12 -9 -21 25 -22 33 -1 35 1 37 30 0 18 0 44
-1 58 -1 15 6 34 15 43 13 14 15 28 11 68 -4 27 -12 57 -19 65 -6 8 -12 27
-13 41 0 28 -32 44 -39 20z m25 -311 c-8 -8 -11 4 -10 44 l1 54 10 -44 c7 -30
6 -47 -1 -54z"/>
<path d="M1285 510 c-3 -5 -4 -14 -1 -19 3 -5 -1 -14 -10 -21 -22 -19 -16
-160 6 -160 12 0 15 8 12 35 -2 19 0 35 6 35 12 0 25 -47 17 -60 -4 -6 1 -10
11 -10 14 0 16 7 11 38 -3 20 -8 46 -13 56 -5 14 -4 17 4 12 7 -4 12 -1 12 9
0 9 -4 14 -9 11 -14 -9 -22 24 -11 45 6 11 8 24 5 29 -8 13 -32 13 -40 0z"/>
<path d="M1380 440 c0 -15 -4 -30 -9 -35 -10 -12 -2 -85 9 -85 14 0 23 106 11
127 -9 16 -10 15 -11 -7z"/>
<path d="M2060 270 c-17 -5 2 -8 60 -9 58 0 80 2 70 9 -18 11 -94 11 -130 0z"/>
<path d="M1545 260 c-28 -7 -27 -8 13 -9 23 0 42 4 42 9 0 11 -11 11 -55 0z"/>
<path d="M1240 231 c8 -5 35 -5 60 -1 l45 7 -60 1 c-37 1 -54 -2 -45 -7z"/>
</g>
</svg>
